<svg xmlns="http://www.w3.org/2000/svg" width="477.916" height="66.417" viewBox="0 0 477.916 66.417">
    <g transform="translate(-389.001 -194)">
        <g transform="translate(-55 97)">
            <g transform="translate(517.449 115.451)">
                <path d="M688.029-3611.1l4.636-3.918,1.266-7.172h-8.536l-.755,4.279-7.792,0,3.419-19.394h7.792l-.572,3.241h8.535l1.08-6.129-3.251-3.934H676.54l-4.641,3.945-4.435,25.156,3.231,3.924Z" transform="translate(-292.634 3644.138)" fill="#282e35"/>
                <path d="M568.571-3622.189l-1.265,7.174,3.235,3.917h17.332l4.636-3.924,4.436-25.156-3.248-3.945H576.384l-4.639,3.934-1.081,6.129h8.875l.571-3.241H587.9l-1.178,6.68h-5.915l-1.22,6.917h5.915l-1.021,5.8-7.793,0,.755-4.279Z" transform="translate(-399.468 3644.138)" fill="#282e35"/>
                <path d="M599.475-3611.1h17.333l4.637-3.918,1.264-7.172h-8.535l-.755,4.279-7.793,0,3.42-19.394h7.792l-.571,3.241H624.8l1.081-6.129-3.252-3.934H605.32l-4.641,3.945-4.435,25.156Z" transform="translate(-368.602 3644.138)" fill="#282e35"/>
                <path d="M619.387-3611.1l4.619-26.2H631.8l-4.621,26.2h8.534l5.558-31.517-1.263-1.506H617.85l-1.781,1.506-5.557,31.517Z" transform="translate(-353.383 3644.138)" fill="#282e35"/>
                <path d="M635.616-3619.844h12.373l4.65-3.951,2.891-16.389-3.251-3.932H632.539l-1.781,1.5L625.2-3611.1h8.872Zm3.077-17.45h7.791l-1.846,10.477h-7.793Z" transform="translate(-337.713 3644.144)" fill="#282e35"/>
                <path d="M643.357-3611.1h18.429l1.2-6.811-13.479,0,1.022-5.8h8.309l1.221-6.917h-8.31l1.178-6.68h13.478l1.2-6.822H649.2l-4.641,3.945-4.435,25.156Z" transform="translate(-321.796 3644.138)" fill="#282e35"/>
                <path d="M593.029-3623.7h2.495l2.925,12.613h9.506l-4.294-16.155.1-.176,9.57-16.709H604.3l-7.739,13.511h-2.312l2.381-13.5h-8.874l-5.824,33.024h8.875Z" transform="translate(-383.868 3644.13)" fill="#282e35"/>
                <path d="M656.337-3611.1h17.332l4.636-3.918,1.264-7.172h-8.535l-.755,4.279-7.793,0,3.42-19.394H673.7l-.571,3.241h8.534l1.081-6.129-3.251-3.934H662.18l-4.642,3.945-4.434,25.156Z" transform="translate(-307.951 3644.138)" fill="#282e35"/>
                <path d="M489.33-3611.09h17.339l4.638-3.921,1.264-7.175h-8.537l-.756,4.281-7.8,0,3.421-19.4h7.8l-.571,3.244h8.537l1.081-6.133-3.252-3.936H495.175l-4.643,3.947-4.438,25.168Z" transform="translate(-486.094 3644.13)" fill="#282e35"/>
                <path d="M538.427-3611.1l1.542-8.744h12.379l4.652-3.954,2.891-16.395-3.251-3.937H536.89l-1.784,1.507-5.557,31.522Zm4.621-26.205h7.8l-1.85,10.486h-7.8Z" transform="translate(-439.743 3644.136)" fill="#282e35"/>
                <path d="M549.532-3611.1h8.831l4.619-26.2H571l.938-5.318-1.264-1.506H548.511l-1.781,1.5-.938,5.32h8.36Z" transform="translate(-422.418 3644.139)" fill="#282e35"/>
                <path d="M509.219-3611.091l4.622-26.214h7.8l-4.622,26.214h8.537l5.56-31.531-1.264-1.507H507.683l-1.783,1.507-5.559,31.531Z" transform="translate(-470.899 3644.131)" fill="#282e35"/>
                <path d="M518.489-3611.093l17.344,0,4.633-3.91,4.441-25.184-3.253-3.937H524.334l-4.64,3.947-4.437,25.166Zm9.575-26.209h7.8l-3.42,19.391-7.8,0Z" transform="translate(-454.988 3644.133)" fill="#282e35"/>
                <path d="M575.753-3632.995l.808-4.584H560.3l-2.645,2.24-.808,4.584h16.26Z" transform="translate(-410.624 3651.118)" fill="#282e35"/>
            </g>
            <g transform="translate(444.001 97)">
                <path d="M505.311-3645.745l-5.257-6.382-.766-.931H460.517l-.372,2.111-9.244,52.43-.346,1.96,1.816.814,19.319,8.665.973.436.022-.009.972-.376,22.493-8.709,1.343-.52.25-1.418,8.111-46,.2-1.159Z" transform="translate(-450.555 3653.059)" fill="#e83b35"/>
                <g transform="translate(9.06 9.26)">
                    <path d="M481.417-3636.655c-.149-.037-.3-.077-.442-.122a9.866,9.866,0,0,1-1.455-.579c-.215-.106-.428-.213-.635-.331a10.925,10.925,0,0,1-.211,1.922,3.811,3.811,0,0,1-3.846-1.627,2.852,2.852,0,0,1-.349-1.124,3.363,3.363,0,0,1,0-.628,4.571,4.571,0,0,1,.854-2.2,12.907,12.907,0,0,0-4.319.783,19.082,19.082,0,0,0-5.264,2.949c-.513.4-1.007.816-1.49,1.257a31.961,31.961,0,0,1,3.7.635A32.362,32.362,0,0,0,454.953-3623l-.014.024.021-.01a34.783,34.783,0,0,1,11.985-3.032,34.054,34.054,0,0,0-7.419,9.106,18.351,18.351,0,0,0,2.685,1.948,27.421,27.421,0,0,1,6.183-2.31c4.943-1.207,9.668-1,13.059.294a13.848,13.848,0,0,0,3.309-5.532,20.364,20.364,0,0,1-4.268-5.553,15.55,15.55,0,0,1-.934-2.226c.155.085.314.166.475.242a13.357,13.357,0,0,0,3.827,1.095,13.367,13.367,0,0,0,1.009-3.852,7.6,7.6,0,0,0-.5-3.742A6.729,6.729,0,0,1,481.417-3636.655Z" transform="translate(-454.939 3656.291)" fill="#fff"/>
                    <path d="M470.1-3640.114a7.1,7.1,0,0,1-1.682.058c.391.18.824.385,1.277.649a7.541,7.541,0,0,1,2.389,2.172,4.846,4.846,0,0,0-.36-3.445A4.194,4.194,0,0,1,470.1-3640.114Z" transform="translate(-440.56 3657.002)" fill="#fff"/>
                    <path d="M469.045-3639.047c-.023-.089-.05-.184-.089-.3l-.012-.043-.045.008a.892.892,0,0,1-.713-.151.907.907,0,0,1-.209-1.265,1.049,1.049,0,0,1,.12-.136l.033-.03-.056-.076-.056-.081c-.078-.1-.163-.213-.271-.342-.132-.155-.25-.285-.364-.4l-.029-.029-.033.02a1.235,1.235,0,0,0-.116.085l-.039.033a1.673,1.673,0,0,0-.324.328,1.657,1.657,0,0,0-.291,1.245,1.657,1.657,0,0,0,.525.96l.037.035a1.114,1.114,0,0,0,.114.1,1.666,1.666,0,0,0,.973.312,1.676,1.676,0,0,0,.82-.213l.033-.019Z" transform="translate(-442.577 3655.707)" fill="#fff"/>
                    <path d="M463.47-3639.768c.453.46.9.922,1.358,1.372.527.521,1.069,1.023,1.6,1.479l.227.195a3.58,3.58,0,0,1,2.222-.593,4.915,4.915,0,0,1,1.786.454,5.731,5.731,0,0,1,.529.279c-.019-.066-.041-.134-.062-.2-.079-.256-.163-.512-.252-.767l-.134-.386a8.377,8.377,0,0,1,2.342,1.31c.056.041.109.091.165.134.114.091.227.18.339.279.132.115.264.235.393.36s.258.259.384.393c.091.095.182.19.269.289.048.054.093.112.138.166.118.136.234.273.345.415.31-.007.639-.027.978-.062a11.317,11.317,0,0,0,1.306-.215,10.986,10.986,0,0,0,2.98-1.153,18.83,18.83,0,0,0-1.678-6.384,18.035,18.035,0,0,0-1.079-1.895,3.033,3.033,0,0,0-.907.715,4.711,4.711,0,0,0-.7,1.124l0,.008-.1.264,0,0-.006.017c-.031-.048-.06-.1-.091-.145l-.1-.13a41.461,41.461,0,0,0-5.857-6.129,4.791,4.791,0,0,0-.384,1.674,8.917,8.917,0,0,0,.056,1.589l.033.121-.016-.009v0c-.056-.031-.11-.057-.165-.089a62.371,62.371,0,0,0-6.494-2.833,6.1,6.1,0,0,0,.229,2.335,13.55,13.55,0,0,0,1.2,2.875c.238.431.5.853.769,1.269a6.879,6.879,0,0,0-2.523.936C462.86-3640.394,463.164-3640.08,463.47-3639.768Z" transform="translate(-446.818 3648.578)" fill="#fff"/>
                </g>
            </g>
        </g>
    </g>
</svg>
